<svg width="24" height="25" viewBox="0 0 24 25" fill="none" xmlns="http://www.w3.org/2000/svg">
<path d="M22 3.47826H19.8261C19.7108 3.47826 19.6002 3.43245 19.5186 3.35092C19.4371 3.26938 19.3913 3.15879 19.3913 3.04348V0.869565C19.391 0.639026 19.2993 0.418007 19.1363 0.254992C18.9733 0.0919757 18.7523 0.000273279 18.5217 0H2V24.3478H22V3.47826ZM5.91304 19.1304H4.17391C4.0586 19.1304 3.94801 19.0846 3.86648 19.0031C3.78494 18.9216 3.73913 18.811 3.73913 18.6957C3.73913 18.5803 3.78494 18.4698 3.86648 18.3882C3.94801 18.3067 4.0586 18.2609 4.17391 18.2609H5.91304C6.02835 18.2609 6.13894 18.3067 6.22048 18.3882C6.30202 18.4698 6.34783 18.5803 6.34783 18.6957C6.34783 18.811 6.30202 18.9216 6.22048 19.0031C6.13894 19.0846 6.02835 19.1304 5.91304 19.1304ZM5.91304 17.3913H4.17391C4.0586 17.3913 3.94801 17.3455 3.86648 17.264C3.78494 17.1824 3.73913 17.0718 3.73913 16.9565C3.73913 16.8412 3.78494 16.7306 3.86648 16.6491C3.94801 16.5675 4.0586 16.5217 4.17391 16.5217H5.91304C6.02835 16.5217 6.13894 16.5675 6.22048 16.6491C6.30202 16.7306 6.34783 16.8412 6.34783 16.9565C6.34783 17.0718 6.30202 17.1824 6.22048 17.264C6.13894 17.3455 6.02835 17.3913 5.91304 17.3913ZM5.91304 15.6522H4.17391C4.0586 15.6522 3.94801 15.6064 3.86648 15.5248C3.78494 15.4433 3.73913 15.3327 3.73913 15.2174C3.73913 15.1021 3.78494 14.9915 3.86648 14.91C3.94801 14.8284 4.0586 14.7826 4.17391 14.7826H5.91304C6.02835 14.7826 6.13894 14.8284 6.22048 14.91C6.30202 14.9915 6.34783 15.1021 6.34783 15.2174C6.34783 15.3327 6.30202 15.4433 6.22048 15.5248C6.13894 15.6064 6.02835 15.6522 5.91304 15.6522ZM5.91304 13.913H4.17391C4.0586 13.913 3.94801 13.8672 3.86648 13.7857C3.78494 13.7042 3.73913 13.5936 3.73913 13.4783C3.73913 13.3629 3.78494 13.2524 3.86648 13.1708C3.94801 13.0893 4.0586 13.0435 4.17391 13.0435H5.91304C6.02835 13.0435 6.13894 13.0893 6.22048 13.1708C6.30202 13.2524 6.34783 13.3629 6.34783 13.4783C6.34783 13.5936 6.30202 13.7042 6.22048 13.7857C6.13894 13.8672 6.02835 13.913 5.91304 13.913ZM5.91304 12.1739H4.17391C4.0586 12.1739 3.94801 12.1281 3.86648 12.0466C3.78494 11.965 3.73913 11.8544 3.73913 11.7391C3.73913 11.6238 3.78494 11.5132 3.86648 11.4317C3.94801 11.3502 4.0586 11.3043 4.17391 11.3043H5.91304C6.02835 11.3043 6.13894 11.3502 6.22048 11.4317C6.30202 11.5132 6.34783 11.6238 6.34783 11.7391C6.34783 11.8544 6.30202 11.965 6.22048 12.0466C6.13894 12.1281 6.02835 12.1739 5.91304 12.1739ZM2.86957 5.21739C2.86957 4.35747 3.12456 3.51686 3.60231 2.80187C4.08005 2.08687 4.75909 1.5296 5.55355 1.20052C6.34801 0.871447 7.22221 0.785346 8.06561 0.953107C8.90901 1.12087 9.68371 1.53496 10.2918 2.14301C10.8998 2.75107 11.3139 3.52578 11.4817 4.36917C11.6494 5.21257 11.5633 6.08677 11.2343 6.88123C10.9052 7.67569 10.3479 8.35473 9.63291 8.83248C8.91792 9.31022 8.07731 9.56522 7.21739 9.56522C6.06468 9.56391 4.95955 9.10541 4.14446 8.29032C3.32937 7.47523 2.87087 6.3701 2.86957 5.21739ZM15.4783 15.6522H8.52174C8.40643 15.6522 8.29584 15.6064 8.2143 15.5248C8.13276 15.4433 8.08696 15.3327 8.08696 15.2174C8.08696 15.1021 8.13276 14.9915 8.2143 14.91C8.29584 14.8284 8.40643 14.7826 8.52174 14.7826H15.4783C15.5936 14.7826 15.7042 14.8284 15.7857 14.91C15.8672 14.9915 15.913 15.1021 15.913 15.2174C15.913 15.3327 15.8672 15.4433 15.7857 15.5248C15.7042 15.6064 15.5936 15.6522 15.4783 15.6522ZM15.913 16.9565C15.913 17.0718 15.8672 17.1824 15.7857 17.264C15.7042 17.3455 15.5936 17.3913 15.4783 17.3913H8.52174C8.40643 17.3913 8.29584 17.3455 8.2143 17.264C8.13276 17.1824 8.08696 17.0718 8.08696 16.9565C8.08696 16.8412 8.13276 16.7306 8.2143 16.6491C8.29584 16.5675 8.40643 16.5217 8.52174 16.5217H15.4783C15.5936 16.5217 15.7042 16.5675 15.7857 16.6491C15.8672 16.7306 15.913 16.8412 15.913 16.9565ZM15.4783 13.913H8.52174C8.40643 13.913 8.29584 13.8672 8.2143 13.7857C8.13276 13.7042 8.08696 13.5936 8.08696 13.4783C8.08696 13.3629 8.13276 13.2524 8.2143 13.1708C8.29584 13.0893 8.40643 13.0435 8.52174 13.0435H15.4783C15.5936 13.0435 15.7042 13.0893 15.7857 13.1708C15.8672 13.2524 15.913 13.3629 15.913 13.4783C15.913 13.5936 15.8672 13.7042 15.7857 13.7857C15.7042 13.8672 15.5936 13.913 15.4783 13.913ZM15.4783 12.1739H8.52174C8.40643 12.1739 8.29584 12.1281 8.2143 12.0466C8.13276 11.965 8.08696 11.8544 8.08696 11.7391C8.08696 11.6238 8.13276 11.5132 8.2143 11.4317C8.29584 11.3502 8.40643 11.3043 8.52174 11.3043H15.4783C15.5936 11.3043 15.7042 11.3502 15.7857 11.4317C15.8672 11.5132 15.913 11.6238 15.913 11.7391C15.913 11.8544 15.8672 11.965 15.7857 12.0466C15.7042 12.1281 15.5936 12.1739 15.4783 12.1739ZM8.08696 18.6957C8.08696 18.5803 8.13276 18.4698 8.2143 18.3882C8.29584 18.3067 8.40643 18.2609 8.52174 18.2609H15.4783C15.5936 18.2609 15.7042 18.3067 15.7857 18.3882C15.8672 18.4698 15.913 18.5803 15.913 18.6957C15.913 18.811 15.8672 18.9216 15.7857 19.0031C15.7042 19.0846 15.5936 19.1304 15.4783 19.1304H8.52174C8.40643 19.1304 8.29584 19.0846 8.2143 19.0031C8.13276 18.9216 8.08696 18.811 8.08696 18.6957ZM19.8261 23.4783H12.8696C12.7543 23.4783 12.6437 23.4325 12.5621 23.3509C12.4806 23.2694 12.4348 23.1588 12.4348 23.0435C12.4348 22.9282 12.4806 22.8176 12.5621 22.736C12.6437 22.6545 12.7543 22.6087 12.8696 22.6087H19.8261C19.9414 22.6087 20.052 22.6545 20.1335 22.736C20.2151 22.8176 20.2609 22.9282 20.2609 23.0435C20.2609 23.1588 20.2151 23.2694 20.1335 23.3509C20.052 23.4325 19.9414 23.4783 19.8261 23.4783ZM19.8261 21.7391H16.3478C16.2325 21.7391 16.1219 21.6933 16.0404 21.6118C15.9589 21.5302 15.913 21.4197 15.913 21.3043C15.913 21.189 15.9589 21.0784 16.0404 20.9969C16.1219 20.9154 16.2325 20.8696 16.3478 20.8696H19.8261C19.9414 20.8696 20.052 20.9154 20.1335 20.9969C20.2151 21.0784 20.2609 21.189 20.2609 21.3043C20.2609 21.4197 20.2151 21.5302 20.1335 21.6118C20.052 21.6933 19.9414 21.7391 19.8261 21.7391ZM19.8261 19.1304H18.9565C18.8412 19.1304 18.7306 19.0846 18.6491 19.0031C18.5675 18.9216 18.5217 18.811 18.5217 18.6957C18.5217 18.5803 18.5675 18.4698 18.6491 18.3882C18.7306 18.3067 18.8412 18.2609 18.9565 18.2609H19.8261C19.9414 18.2609 20.052 18.3067 20.1335 18.3882C20.2151 18.4698 20.2609 18.5803 20.2609 18.6957C20.2609 18.811 20.2151 18.9216 20.1335 19.0031C20.052 19.0846 19.9414 19.1304 19.8261 19.1304ZM19.8261 17.3913H18.9565C18.8412 17.3913 18.7306 17.3455 18.6491 17.264C18.5675 17.1824 18.5217 17.0718 18.5217 16.9565C18.5217 16.8412 18.5675 16.7306 18.6491 16.6491C18.7306 16.5675 18.8412 16.5217 18.9565 16.5217H19.8261C19.9414 16.5217 20.052 16.5675 20.1335 16.6491C20.2151 16.7306 20.2609 16.8412 20.2609 16.9565C20.2609 17.0718 20.2151 17.1824 20.1335 17.264C20.052 17.3455 19.9414 17.3913 19.8261 17.3913ZM19.8261 15.6522H18.9565C18.8412 15.6522 18.7306 15.6064 18.6491 15.5248C18.5675 15.4433 18.5217 15.3327 18.5217 15.2174C18.5217 15.1021 18.5675 14.9915 18.6491 14.91C18.7306 14.8284 18.8412 14.7826 18.9565 14.7826H19.8261C19.9414 14.7826 20.052 14.8284 20.1335 14.91C20.2151 14.9915 20.2609 15.1021 20.2609 15.2174C20.2609 15.3327 20.2151 15.4433 20.1335 15.5248C20.052 15.6064 19.9414 15.6522 19.8261 15.6522ZM19.8261 13.913H18.9565C18.8412 13.913 18.7306 13.8672 18.6491 13.7857C18.5675 13.7042 18.5217 13.5936 18.5217 13.4783C18.5217 13.3629 18.5675 13.2524 18.6491 13.1708C18.7306 13.0893 18.8412 13.0435 18.9565 13.0435H19.8261C19.9414 13.0435 20.052 13.0893 20.1335 13.1708C20.2151 13.2524 20.2609 13.3629 20.2609 13.4783C20.2609 13.5936 20.2151 13.7042 20.1335 13.7857C20.052 13.8672 19.9414 13.913 19.8261 13.913ZM19.8261 12.1739H18.9565C18.8412 12.1739 18.7306 12.1281 18.6491 12.0466C18.5675 11.965 18.5217 11.8544 18.5217 11.7391C18.5217 11.6238 18.5675 11.5132 18.6491 11.4317C18.7306 11.3502 18.8412 11.3043 18.9565 11.3043H19.8261C19.9414 11.3043 20.052 11.3502 20.1335 11.4317C20.2151 11.5132 20.2609 11.6238 20.2609 11.7391C20.2609 11.8544 20.2151 11.965 20.1335 12.0466C20.052 12.1281 19.9414 12.1739 19.8261 12.1739ZM19.8261 9.56522H13.3043C13.189 9.56522 13.0784 9.51941 12.9969 9.43787C12.9154 9.35633 12.8696 9.24575 12.8696 9.13043C12.8696 9.01512 12.9154 8.90453 12.9969 8.823C13.0784 8.74146 13.189 8.69565 13.3043 8.69565H19.8261C19.9414 8.69565 20.052 8.74146 20.1335 8.823C20.2151 8.90453 20.2609 9.01512 20.2609 9.13043C20.2609 9.24575 20.2151 9.35633 20.1335 9.43787C20.052 9.51941 19.9414 9.56522 19.8261 9.56522ZM19.8261 7.82609H13.3043C13.189 7.82609 13.0784 7.78028 12.9969 7.69874C12.9154 7.6172 12.8696 7.50662 12.8696 7.3913C12.8696 7.27599 12.9154 7.1654 12.9969 7.08387C13.0784 7.00233 13.189 6.95652 13.3043 6.95652H19.8261C19.9414 6.95652 20.052 7.00233 20.1335 7.08387C20.2151 7.1654 20.2609 7.27599 20.2609 7.3913C20.2609 7.50662 20.2151 7.6172 20.1335 7.69874C20.052 7.78028 19.9414 7.82609 19.8261 7.82609ZM19.8261 6.08696H15.4783C15.3629 6.08696 15.2524 6.04115 15.1708 5.95961C15.0893 5.87807 15.0435 5.76749 15.0435 5.65217C15.0435 5.53686 15.0893 5.42627 15.1708 5.34474C15.2524 5.2632 15.3629 5.21739 15.4783 5.21739H19.8261C19.9414 5.21739 20.052 5.2632 20.1335 5.34474C20.2151 5.42627 20.2609 5.53686 20.2609 5.65217C20.2609 5.76749 20.2151 5.87807 20.1335 5.95961C20.052 6.04115 19.9414 6.08696 19.8261 6.08696Z" fill="#F0F0F0"/>
<path d="M7.21654 1.73926C6.52861 1.73926 5.85612 1.94325 5.28413 2.32545C4.71213 2.70765 4.26631 3.25088 4.00305 3.88645C3.73979 4.52202 3.67091 5.22138 3.80512 5.89609C3.93933 6.57081 4.2706 7.19058 4.75704 7.67702C5.24349 8.16346 5.86325 8.49474 6.53797 8.62895C7.21269 8.76316 7.91205 8.69428 8.54762 8.43101C9.18319 8.16775 9.72642 7.72193 10.1086 7.14994C10.4908 6.57794 10.6948 5.90545 10.6948 5.21752C10.6938 4.29534 10.327 3.41124 9.6749 2.75916C9.02283 2.10708 8.13872 1.74029 7.21654 1.73926ZM7.21654 4.78274C7.52414 4.78286 7.8218 4.89169 8.05694 5.09C8.29207 5.28831 8.44956 5.56333 8.50158 5.8665C8.5536 6.16967 8.4968 6.48146 8.34122 6.74681C8.18564 7.01216 7.94129 7.21399 7.65133 7.31665V7.39143C7.65133 7.50674 7.60552 7.61733 7.52398 7.69887C7.44244 7.78041 7.33186 7.82621 7.21654 7.82621C7.10123 7.82621 6.99064 7.78041 6.90911 7.69887C6.82757 7.61733 6.78176 7.50674 6.78176 7.39143V7.31665C6.52766 7.22648 6.30767 7.0599 6.15199 6.83977C5.9963 6.61963 5.91254 6.35671 5.9122 6.08708C5.9122 5.97177 5.958 5.86118 6.03954 5.77965C6.12108 5.69811 6.23167 5.6523 6.34698 5.6523C6.46229 5.6523 6.57288 5.69811 6.65442 5.77965C6.73595 5.86118 6.78176 5.97177 6.78176 6.08708C6.78176 6.17308 6.80726 6.25714 6.85503 6.32864C6.90281 6.40014 6.97071 6.45586 7.05016 6.48877C7.12961 6.52168 7.21703 6.53029 7.30137 6.51351C7.38571 6.49674 7.46318 6.45533 7.52398 6.39452C7.58479 6.33372 7.6262 6.25625 7.64297 6.17191C7.65975 6.08757 7.65114 6.00015 7.61823 5.9207C7.58532 5.84125 7.5296 5.77335 7.4581 5.72558C7.3866 5.6778 7.30254 5.6523 7.21654 5.6523C6.90895 5.65218 6.61129 5.54335 6.37615 5.34504C6.14101 5.14673 5.98353 4.8717 5.93151 4.56854C5.87949 4.26537 5.93629 3.95357 6.09187 3.68822C6.24745 3.42287 6.4918 3.22104 6.78176 3.11839V3.04361C6.78176 2.92829 6.82757 2.81771 6.90911 2.73617C6.99064 2.65463 7.10123 2.60882 7.21654 2.60882C7.33186 2.60882 7.44244 2.65463 7.52398 2.73617C7.60552 2.81771 7.65133 2.92829 7.65133 3.04361V3.11839C7.90543 3.20856 8.12541 3.37513 8.2811 3.59527C8.43678 3.81541 8.52054 4.07833 8.52089 4.34795C8.52089 4.46327 8.47509 4.57385 8.39355 4.65539C8.31201 4.73693 8.20142 4.78274 8.08611 4.78274C7.9708 4.78274 7.86021 4.73693 7.77867 4.65539C7.69713 4.57385 7.65133 4.46327 7.65133 4.34795C7.65133 4.26196 7.62583 4.1779 7.57805 4.1064C7.53028 4.0349 7.46237 3.97917 7.38293 3.94627C7.30348 3.91336 7.21606 3.90475 7.13172 3.92153C7.04738 3.9383 6.96991 3.97971 6.90911 4.04052C6.8483 4.10132 6.80689 4.17879 6.79012 4.26313C6.77334 4.34747 6.78195 4.43489 6.81486 4.51434C6.84776 4.59378 6.90349 4.66169 6.97499 4.70946C7.04649 4.75724 7.13055 4.78274 7.21654 4.78274Z" fill="#F0F0F0"/>
</svg>
