<svg width="24" height="24" viewBox="0 0 24 24" fill="none" xmlns="http://www.w3.org/2000/svg">
<path d="M11 13V15H9V13H11Z" fill="white"/>
<path fill-rule="evenodd" clip-rule="evenodd" d="M6.47967 4C6.17991 4.00004 5.88398 4.06746 5.61378 4.19728C5.34359 4.3271 5.10603 4.51599 4.91867 4.75L1.86867 8.563C1.08267 9.545 1.78267 11 3.03967 11H3.99967V18C3.99967 18.5304 4.21039 19.0391 4.58546 19.4142C4.96053 19.7893 5.46924 20 5.99967 20H13.9997C14.5301 20 15.0388 19.7893 15.4139 19.4142C15.789 19.0391 15.9997 18.5304 15.9997 18V11H17.9997V19C17.9997 19.2652 18.105 19.5196 18.2926 19.7071C18.4801 19.8946 18.7345 20 18.9997 20C19.2649 20 19.5192 19.8946 19.7068 19.7071C19.8943 19.5196 19.9997 19.2652 19.9997 19V11H20.9597C22.2177 11 22.9167 9.545 22.1307 8.563L19.0807 4.751C18.8934 4.51681 18.6559 4.32772 18.3857 4.19773C18.1155 4.06773 17.8195 4.00016 17.5197 4H6.47967ZM7.99967 11C7.73446 11 7.4801 11.1054 7.29257 11.2929C7.10503 11.4804 6.99967 11.7348 6.99967 12V16C6.99967 16.2652 7.10503 16.5196 7.29257 16.7071C7.4801 16.8946 7.73446 17 7.99967 17H11.9997C12.2649 17 12.5192 16.8946 12.7068 16.7071C12.8943 16.5196 12.9997 16.2652 12.9997 16V12C12.9997 11.7348 12.8943 11.4804 12.7068 11.2929C12.5192 11.1054 12.2649 11 11.9997 11H7.99967Z" fill="white"/>
</svg>
